# 3ds Max Wavefront OBJ Exporter v0.97b - (c)2007 guruware
# File Created: 28.09.2018 11:17:40

mtllib Livre.mtl

#
# object AM134_15_book_15
#

v  16.7336 -0.5275 13.0880
v  16.7304 -0.6328 13.2235
v  16.7357 -0.7207 13.0009
v  16.7371 -0.5750 12.9397
v  16.7517 0.6052 12.3271
v  16.7517 0.7152 12.3271
v  16.7436 0.5735 12.6653
v  16.7436 0.5277 12.6656
v  16.7383 0.6628 12.8884
v  16.7327 0.7285 13.1269
v  16.7352 0.5814 13.0203
v  16.7385 0.5727 12.8822
v  16.7517 -0.6052 12.3271
v  16.7517 -0.7152 12.3271
v  17.3781 -0.7152 -13.9937
v  17.3781 -0.6052 -13.9937
v  17.3781 0.6052 -13.9937
v  17.3781 0.7152 -13.9937
v  16.7298 0.5053 13.2483
v  16.7327 0.4472 13.1266
v  16.7436 -0.5735 12.6653
v  16.7436 -0.5277 12.6656
v  17.3098 0.7152 -14.0654
v  17.3081 0.7852 -13.9954
v  17.3098 -0.6052 -14.0654
v  17.3081 -0.5352 -13.9954
v  17.3081 -0.7852 -13.9954
v  17.3098 -0.7152 -14.0654
v  17.3081 0.5352 -13.9954
v  17.3098 0.6052 -14.0654
v  16.6649 -0.4852 13.0318
v  16.6642 0.4174 13.0625
v  16.6583 0.5352 13.3091
v  16.6591 -0.6752 13.2763
v  16.6617 0.7852 13.1663
v  16.6817 -0.7852 12.3254
v  16.6817 0.5352 12.3254
v  16.6650 -0.7852 13.0264
v  16.6662 0.5247 12.9775
v  16.6686 0.5029 12.8757
v  16.6678 -0.5104 12.9109
v  16.6682 0.7326 12.8916
v  16.6737 -0.6435 12.6631
v  16.6817 -0.5352 12.3254
v  16.6736 -0.4577 12.6645
v  16.6817 0.7852 12.3254
v  16.6737 0.6435 12.6631
v  16.6736 0.4577 12.6645
v  -17.3337 -0.5750 12.1288
v  -17.3352 -0.7207 12.1900
v  -17.3405 -0.6328 12.4126
v  -17.3373 -0.5275 12.2771
v  -17.3272 0.5277 11.8548
v  -17.3272 0.5735 11.8544
v  -17.3192 0.7152 11.5162
v  -17.3192 0.6052 11.5162
v  -17.3325 0.6628 12.0775
v  -17.3324 0.5727 12.0713
v  -17.3357 0.5814 12.2094
v  -17.3382 0.7285 12.3160
v  -17.3192 -0.6052 11.5162
v  -16.6927 -0.6052 -14.8046
v  -16.6927 -0.7152 -14.8046
v  -17.3192 -0.7152 11.5162
v  -16.6927 0.7152 -14.8046
v  -16.6927 0.6052 -14.8046
v  -17.3382 0.4472 12.3157
v  -17.3411 0.5053 12.4374
v  -17.3272 -0.5277 11.8548
v  -17.3272 -0.5735 11.8544
v  -17.2667 0.4174 12.2549
v  -17.2660 -0.4852 12.2243
v  -17.2659 -0.7852 12.2188
v  -17.2718 -0.6752 12.4688
v  -17.2692 0.7852 12.3588
v  -17.2627 0.7326 12.0840
v  -17.2726 0.5352 12.5016
v  -17.2492 0.7852 11.5179
v  -16.6227 0.7852 -14.8030
v  -17.2631 -0.5104 12.1033
v  -17.2647 0.5247 12.1699
v  -17.2623 0.5029 12.0681
v  -17.2573 -0.4577 11.8569
v  -17.2492 -0.5352 11.5179
v  -17.2572 0.6435 11.8556
v  -17.2572 -0.6435 11.8556
v  -17.2492 -0.7852 11.5179
v  -17.2492 0.5352 11.5179
v  -17.2573 0.4577 11.8569
v  -16.6227 -0.7852 -14.8030
v  -16.6227 0.5352 -14.8030
v  -16.6211 -0.6052 -14.8729
v  -16.6211 -0.7152 -14.8729
v  -16.6211 0.7152 -14.8729
v  -16.6211 0.6052 -14.8729
v  -16.6227 -0.5352 -14.8030
v  -16.8958 -0.5717 12.3053
v  -16.8958 0.5890 12.3053
v  -16.4203 0.5927 -14.4393
v  -16.4203 -0.5754 -14.4393
v  17.0837 0.5927 -13.6419
v  16.2863 0.5890 13.0950
v  16.2863 -0.5717 13.0950
v  17.0837 -0.5754 -13.6419
# 104 vertices

vn 0.9738 0.1490 -0.1720
vn 0.8593 -0.2741 0.4318
vn 0.8714 -0.4894 -0.0343
vn 0.9409 0.3384 -0.0114
vn 0.9336 -0.3580 -0.0163
vn 0.9012 0.4181 0.1143
vn 0.9547 0.2966 0.0245
vn 0.9048 -0.4256 0.0165
vn 0.9133 0.3908 -0.1143
vn 0.8519 0.4949 0.1710
vn 0.9634 -0.2496 -0.0983
vn 0.9268 -0.3690 0.0694
vn 0.9336 0.3580 -0.0163
vn 0.9012 -0.4181 0.1143
vn 0.8835 -0.3416 -0.3207
vn 0.8835 0.3416 -0.3207
vn 0.8835 -0.3416 -0.3206
vn 0.8835 0.3416 -0.3206
vn 0.8856 0.0924 0.4552
vn 0.9581 -0.1003 -0.2682
vn 0.9560 -0.2928 0.0204
vn 0.9064 0.4223 0.0087
vn 0.3623 0.3416 -0.8672
vn 0.3496 0.8756 -0.3334
vn 0.3496 -0.8756 -0.3334
vn 0.3623 -0.3416 -0.8672
vn 0.4607 0.5830 -0.6692
vn 0.4307 -0.2750 -0.8596
vn 0.3340 0.2348 0.9129
vn 0.3214 -0.5281 0.7860
vn 0.3280 0.8496 0.4130
vn 0.3587 -0.9146 0.1868
vn 0.3934 -0.9143 -0.0962
vn 0.3415 -0.9387 0.0468
vn 0.4222 -0.8700 -0.2546
vn 0.3688 -0.9071 0.2030
vn 0.3756 0.9263 0.0289
vn 0.3681 0.8971 -0.2444
vn 0.4189 -0.9077 0.0234
vn 0.3934 0.9143 -0.0962
vn 0.3653 0.9309 0.0028
vn 0.3587 0.9146 0.1868
vn 0.4189 0.9077 0.0234
vn 0.3652 -0.9309 0.0028
vn -0.9393 0.3384 -0.0562
vn -0.8687 -0.4894 -0.0758
vn -0.8789 -0.2741 0.3905
vn -0.9645 0.1490 -0.2181
vn -0.9045 -0.4256 -0.0266
vn -0.9548 0.2966 -0.0210
vn -0.9056 0.4181 0.0713
vn -0.9317 -0.3580 -0.0607
vn -0.9069 0.3908 -0.1576
vn -0.9291 -0.3690 0.0252
vn -0.9576 -0.2496 -0.1441
vn -0.8591 0.4949 0.1303
vn -0.9317 0.3580 -0.0607
vn -0.8672 0.3416 -0.3623
vn -0.8672 -0.3416 -0.3623
vn -0.9056 -0.4181 0.0713
vn -0.9443 -0.1003 -0.3135
vn -0.9063 0.0924 0.4125
vn -0.9058 0.4223 -0.0345
vn -0.9559 -0.2928 -0.0251
vn -0.3893 -0.2750 -0.8791
vn -0.4284 0.5830 -0.6904
vn -0.3433 -0.9387 0.0306
vn -0.3584 -0.5280 0.7699
vn -0.3473 0.8496 0.3969
vn -0.3561 0.8971 -0.2616
vn -0.3771 0.2348 0.8959
vn -0.3672 0.9146 0.1695
vn -0.3334 0.8756 -0.3496
vn -0.3766 0.9263 0.0110
vn -0.4096 -0.8700 -0.2743
vn -0.3780 -0.9071 0.1853
vn -0.3649 0.9309 -0.0146
vn -0.3884 0.9143 -0.1148
vn -0.4195 0.9077 0.0035
vn -0.4195 -0.9078 0.0034
vn -0.3672 -0.9146 0.1695
vn -0.3884 -0.9143 -0.1148
vn -0.3650 -0.9309 -0.0146
vn -0.3334 -0.8756 -0.3496
vn -0.3207 0.3416 -0.8835
vn -0.3206 -0.3416 -0.8834
vn -0.3207 -0.3416 -0.8835
vn -0.9998 -0.0000 -0.0178
vn -0.6923 0.0000 -0.7217
vn 0.7258 0.0000 -0.6879
vn 0.9996 -0.0000 0.0298
# 91 vertex normals

vt 0.5284 0.4907 0.0000
vt 0.5272 0.4902 0.0000
vt 0.5280 0.4885 0.0000
vt 0.5292 0.4894 0.0000
vt 0.5345 0.5037 0.0000
vt 0.5341 0.5045 0.0000
vt 0.5318 0.5024 0.0000
vt 0.5320 0.5020 0.0000
vt 0.5298 0.5021 0.0000
vt 0.5277 0.5018 0.0000
vt 0.5291 0.5008 0.0000
vt 0.5302 0.5014 0.0000
vt 0.5331 0.4856 0.0000
vt 0.5326 0.4848 0.0000
vt 0.7209 0.3594 0.0000
vt 0.7214 0.3602 0.0000
vt 0.7396 0.5990 0.0000
vt 0.7393 0.5998 0.0000
vt 0.5274 0.4998 0.0000
vt 0.5285 0.4993 0.0000
vt 0.5308 0.4874 0.0000
vt 0.5311 0.4878 0.0000
vt 0.7399 0.6002 0.0000
vt 0.7390 0.6006 0.0000
vt 0.7221 0.3598 0.0000
vt 0.7219 0.3608 0.0000
vt 0.7205 0.3587 0.0000
vt 0.7215 0.3589 0.0000
vt 0.7401 0.5983 0.0000
vt 0.7404 0.5993 0.0000
vt 0.5293 0.4910 0.0000
vt 0.5293 0.4990 0.0000
vt 0.5267 0.5001 0.0000
vt 0.5266 0.4900 0.0000
vt 0.5269 0.5024 0.0000
vt 0.5321 0.4842 0.0000
vt 0.5348 0.5029 0.0000
vt 0.5270 0.4879 0.0000
vt 0.5298 0.5003 0.0000
vt 0.5306 0.5006 0.0000
vt 0.5299 0.4899 0.0000
vt 0.5294 0.5029 0.0000
vt 0.5303 0.4867 0.0000
vt 0.5336 0.4863 0.0000
vt 0.5316 0.4885 0.0000
vt 0.5337 0.5053 0.0000
vt 0.5315 0.5031 0.0000
vt 0.5323 0.5012 0.0000
vt 0.2327 0.4893 0.0000
vt 0.2340 0.4885 0.0000
vt 0.2348 0.4902 0.0000
vt 0.2335 0.4907 0.0000
vt 0.2300 0.5020 0.0000
vt 0.2301 0.5023 0.0000
vt 0.2278 0.5045 0.0000
vt 0.2275 0.5036 0.0000
vt 0.2322 0.5021 0.0000
vt 0.2318 0.5014 0.0000
vt 0.2329 0.5008 0.0000
vt 0.2342 0.5019 0.0000
vt 0.2289 0.4855 0.0000
vt 0.0550 0.3408 0.0000
vt 0.0555 0.3401 0.0000
vt 0.2295 0.4848 0.0000
vt 0.0211 0.5964 0.0000
vt 0.0208 0.5956 0.0000
vt 0.2335 0.4993 0.0000
vt 0.2345 0.4998 0.0000
vt 0.2309 0.4877 0.0000
vt 0.2312 0.4874 0.0000
vt 0.2352 0.9722 0.0000
vt 0.5269 0.9722 0.0000
vt 0.5269 0.9800 0.0000
vt 0.2352 0.9800 0.0000
vt 0.2350 0.4879 0.0000
vt 0.2353 0.4900 0.0000
vt 0.2350 0.5025 0.0000
vt 0.5268 0.5048 0.0000
vt 0.2351 0.5049 0.0000
vt 0.2352 0.5001 0.0000
vt 0.2351 0.5101 0.0000
vt 0.5268 0.5101 0.0000
vt 0.5268 0.7364 0.0000
vt 0.2352 0.7364 0.0000
vt 0.2351 0.0200 0.0000
vt 0.5268 0.0200 0.0000
vt 0.5268 0.0211 0.0000
vt 0.2351 0.0211 0.0000
vt 0.2352 0.9711 0.0000
vt 0.5269 0.9710 0.0000
vt 0.2352 0.9702 0.0000
vt 0.5269 0.9701 0.0000
vt 0.5268 0.0232 0.0000
vt 0.2351 0.0232 0.0000
vt 0.5268 0.0262 0.0000
vt 0.2351 0.0262 0.0000
vt 0.2351 0.5070 0.0000
vt 0.5268 0.5070 0.0000
vt 0.2351 0.4846 0.0000
vt 0.5268 0.4845 0.0000
vt 0.2351 0.4814 0.0000
vt 0.5268 0.4814 0.0000
vt 0.2352 0.9653 0.0000
vt 0.5269 0.9653 0.0000
vt 0.5269 0.9683 0.0000
vt 0.2352 0.9683 0.0000
vt 0.2351 0.2551 0.0000
vt 0.5268 0.2551 0.0000
vt 0.2352 0.7390 0.0000
vt 0.5268 0.7390 0.0000
vt 0.2351 0.2533 0.0000
vt 0.5268 0.2533 0.0000
vt 0.5268 0.2543 0.0000
vt 0.2351 0.2543 0.0000
vt 0.2352 0.7373 0.0000
vt 0.5268 0.7372 0.0000
vt 0.5268 0.7382 0.0000
vt 0.2352 0.7382 0.0000
vt 0.0213 0.5972 0.0000
vt 0.0204 0.5968 0.0000
vt 0.0544 0.3414 0.0000
vt 0.0543 0.3404 0.0000
vt 0.0559 0.3394 0.0000
vt 0.0550 0.3395 0.0000
vt 0.0203 0.5949 0.0000
vt 0.0200 0.5959 0.0000
vt 0.2326 0.4990 0.0000
vt 0.2327 0.4909 0.0000
vt 0.2322 0.5003 0.0000
vt 0.2314 0.5006 0.0000
vt 0.2320 0.4898 0.0000
vt 0.2325 0.5029 0.0000
vt 0.2300 0.4841 0.0000
vt 0.2317 0.4867 0.0000
vt 0.2303 0.4884 0.0000
vt 0.2283 0.4862 0.0000
vt 0.2305 0.5031 0.0000
vt 0.2282 0.5053 0.0000
vt 0.2271 0.5029 0.0000
vt 0.2296 0.5012 0.0000
vt 0.5268 0.2525 0.0000
vt 0.2351 0.2525 0.0000
vt 0.9681 0.7850 0.0000
vt 0.9581 0.7850 0.0000
vt 0.9580 0.5551 0.0000
vt 0.9681 0.5551 0.0000
vt 0.9580 0.2671 0.0000
vt 0.9580 0.0372 0.0000
vt 0.9679 0.0372 0.0000
vt 0.9681 0.2671 0.0000
# 150 texture coords

o AM134_15_book_15
g AM134_15_book_15
usemtl Livre
s 1
f 1/1/1 2/2/2 3/3/3 4/4/4 
f 5/5/5 6/6/6 7/7/7 8/8/8 
f 9/9/9 10/10/10 11/11/11 12/12/12 
f 13/13/13 14/14/14 15/15/15 16/16/16 
f 6/6/6 5/5/5 17/17/17 18/18/18 
f 10/10/10 19/19/19 20/20/20 11/11/11 
f 19/19/19 2/2/2 1/1/1 20/20/20 
f 21/21/21 22/22/22 4/4/4 3/3/3 
f 8/8/8 7/7/7 9/9/9 12/12/12 
f 21/21/21 14/14/14 13/13/13 22/22/22 
f 18/18/18 23/23/23 24/24/24 
f 16/16/16 25/25/23 26/26/24 
f 27/27/25 28/28/26 15/15/15 
f 29/29/25 30/30/26 17/17/17 
f 1/1/1 31/31/27 32/32/28 20/20/20 
f 19/19/19 33/33/29 34/34/30 2/2/2 
f 10/10/10 35/35/31 33/33/29 19/19/19 
f 14/14/14 36/36/32 27/27/25 15/15/15 
f 5/5/5 37/37/33 29/29/25 17/17/17 
f 2/2/2 34/34/30 38/38/34 3/3/3 
f 20/20/20 32/32/28 39/39/35 11/11/11 
f 11/11/11 39/39/35 40/40/36 12/12/12 
f 4/4/4 41/41/37 31/31/27 1/1/1 
f 9/9/9 42/42/38 35/35/31 10/10/10 
f 21/21/21 43/43/39 36/36/32 14/14/14 
f 13/13/13 44/44/40 45/45/41 22/22/22 
f 3/3/3 38/38/34 43/43/39 21/21/21 
f 22/22/22 45/45/41 41/41/37 4/4/4 
f 6/6/6 46/46/42 47/47/43 7/7/7 
f 8/8/8 48/48/44 37/37/33 5/5/5 
f 7/7/7 47/47/43 42/42/38 9/9/9 
f 12/12/12 40/40/36 48/48/44 8/8/8 
f 18/18/18 24/24/24 46/46/42 6/6/6 
f 16/16/16 26/26/24 44/44/40 13/13/13 
f 15/15/15 28/28/26 25/25/23 16/16/16 
f 17/17/17 30/30/26 23/23/23 18/18/18 
f 49/49/45 50/50/46 51/51/47 52/52/48 
f 53/53/49 54/54/50 55/55/51 56/56/52 
f 57/57/53 58/58/54 59/59/55 60/60/56 
f 61/61/57 62/62/58 63/63/59 64/64/60 
f 55/55/51 65/65/58 66/66/59 56/56/52 
f 60/60/56 59/59/55 67/67/61 68/68/62 
f 68/68/62 67/67/61 52/52/48 51/51/47 
f 50/50/46 49/49/45 69/69/63 70/70/64 
f 58/58/54 57/57/53 54/54/50 53/53/49 
f 70/70/64 69/69/63 61/61/57 64/64/60 
f 71/71/65 32/72/28 31/73/27 72/74/66 
f 73/75/67 38/38/34 34/34/30 74/76/68 
f 75/77/69 35/35/31 42/78/38 76/79/70 
f 74/76/68 34/34/30 33/33/29 77/80/71 
f 77/80/71 33/33/29 35/35/31 75/77/69 
f 78/81/72 46/82/42 24/83/24 79/84/73 
f 72/85/66 31/86/27 41/87/37 80/88/74 
f 81/89/75 39/90/35 32/72/28 71/71/65 
f 82/91/76 40/92/36 39/90/35 81/89/75 
f 80/88/74 41/87/37 45/93/41 83/94/77 
f 83/94/77 45/93/41 44/95/40 84/96/78 
f 85/97/79 47/98/43 46/82/42 78/81/72 
f 86/99/80 43/100/39 38/38/34 73/75/67 
f 87/101/81 36/102/32 43/100/39 86/99/80 
f 88/103/82 37/104/33 48/105/44 89/106/83 
f 76/79/70 42/78/38 47/98/43 85/97/79 
f 89/106/83 48/105/44 40/92/36 82/91/76 
f 90/107/84 27/108/25 36/102/32 87/101/81 
f 91/109/84 29/110/25 37/104/33 88/103/82 
f 92/111/85 25/112/23 28/113/26 93/114/86 
f 94/115/85 23/116/23 30/117/26 95/118/87 
f 65/65/58 79/119/73 94/120/85 
f 62/62/58 96/121/73 92/122/85 
f 90/123/84 63/63/59 93/124/86 
f 91/125/84 66/66/59 95/126/87 
f 52/52/48 67/67/61 71/127/65 72/128/66 
f 51/51/47 74/76/68 77/80/71 68/68/62 
f 68/68/62 77/80/71 75/77/69 60/60/56 
f 51/51/47 50/50/46 73/75/67 74/76/68 
f 67/67/61 59/59/55 81/129/75 71/127/65 
f 58/58/54 82/130/76 81/129/75 59/59/55 
f 49/49/45 52/52/48 72/128/66 80/131/74 
f 57/57/53 60/60/56 75/77/69 76/132/70 
f 64/64/60 87/133/81 86/134/80 70/70/64 
f 69/69/63 83/135/77 84/136/78 61/61/57 
f 70/70/64 86/134/80 73/75/67 50/50/46 
f 49/49/45 80/131/74 83/135/77 69/69/63 
f 54/54/50 85/137/79 78/138/72 55/55/51 
f 56/56/52 88/139/82 89/140/83 53/53/49 
f 57/57/53 76/132/70 85/137/79 54/54/50 
f 53/53/49 89/140/83 82/130/76 58/58/54 
f 65/65/58 55/55/51 78/138/72 79/119/73 
f 62/62/58 61/61/57 84/136/78 96/121/73 
f 63/63/59 90/123/84 87/133/81 64/64/60 
f 66/66/59 91/125/84 88/139/82 56/56/52 
f 63/63/59 62/62/58 92/122/85 93/124/86 
f 66/66/59 65/65/58 94/120/85 95/126/87 
f 24/83/24 23/116/23 94/115/85 79/84/73 
f 26/141/24 25/112/23 92/111/85 96/142/73 
f 28/113/26 27/108/25 90/107/84 93/114/86 
f 30/117/26 29/110/25 91/109/84 95/118/87 
f 84/96/78 44/95/40 26/141/24 96/142/73 
s 15
f 97/143/88 98/144/88 99/145/89 100/146/89 
s 1
f 101/147/90 102/148/91 103/149/91 104/150/90 
s 15
f 101/147/90 104/150/90 100/146/89 99/145/89 
# 93 polygons - 8 triangles

